<?xml version="1.0" encoding="utf-8"?>
<!-- Generator: Adobe Illustrator 24.3.0, SVG Export Plug-In . SVG Version: 6.00 Build 0)  -->
<svg version="1.1" id="图层_1" xmlns="http://www.w3.org/2000/svg" xmlns:xlink="http://www.w3.org/1999/xlink" x="0px" y="0px"
	 viewBox="0 0 600 600" style="enable-background:new 0 0 600 600;" xml:space="preserve">
<style type="text/css">
	.st0{fill:#FFFFFF;}
	.st1{fill:#D65C5C;}
	.st2{fill:#3D1111;}
</style>
<g>
	<g>
		<polygon class="st1" points="353.9,224.6 375.3,164.9 342.4,153.1 321,212.8 286.5,200.4 286.9,235.9 365.6,264.1 388.4,236.9 		
			"/>
		<polygon class="st1" points="293.7,260.7 236.7,419.9 258.3,439.8 287.7,438.1 344.6,278.9 319.2,269.8 		"/>
	</g>
	<path class="st2" d="M234.2,367.7c-13.6-20.2-17.8-46.5-9-71.1c7.5-21,23-36.8,41.8-45.4l-0.4-46.9c-37.2,10.5-69,38.2-83.1,77.4
		c-17.4,48.6-2.5,101,33.7,133.5L234.2,367.7z"/>
	<path class="st2" d="M401.3,252.5l-30.1,35.9c9.1,18.6,11,40.7,3.5,61.7c-8.8,24.7-28.7,42.3-52.1,49.3l-17,47.5
		c48.6-2.3,93.3-33.2,110.7-81.9C430.4,325.8,423.4,284.2,401.3,252.5z"/>
</g>
</svg>
