<?xml version="1.0" encoding="utf-8"?>
<!-- Generator: Adobe Illustrator 24.3.0, SVG Export Plug-In . SVG Version: 6.00 Build 0)  -->
<svg version="1.1" id="图层_1" xmlns="http://www.w3.org/2000/svg" xmlns:xlink="http://www.w3.org/1999/xlink" x="0px" y="0px"
	 viewBox="0 0 600 600" style="enable-background:new 0 0 600 600;" xml:space="preserve">
<style type="text/css">
	.st0{fill:#FFFFFF;}
	.st1{fill:#D65C5C;}
	.st2{fill:#3D1111;}
</style>
<g>
	<g>
		<path d="M96.6,419.9v-50.3h8.3l22.5-0.1c9.1,0,16.2,2.1,21.2,6.4c5,4.3,7.5,10.5,7.5,18.8c0,8.3-2.5,14.5-7.5,18.8
			c-5,4.3-12.1,6.4-21.2,6.4H96.6z M126.6,378.7h-18.8v32.1h18.8c5.9,0,10.4-1.3,13.4-3.9c3-2.6,4.6-6.6,4.6-12.2
			c0-5.6-1.5-9.6-4.6-12.2C137,380,132.5,378.7,126.6,378.7z"/>
		<path d="M171,419.9c-3.8,0-6.7-1-8.7-2.9c-2-1.9-3-4.7-3-8.2c0-3.5,1-6.2,3-8.2c2-1.9,4.9-2.9,8.7-2.9h27V396
			c0-2.9-1.4-4.3-4.2-4.3h-29.8v-8.1h32.5c4.3,0,7.3,1,9.1,2.9c1.8,1.9,2.7,4.7,2.7,8.2v25.1H171z M172.8,411.8H198v-6h-25.2
			c-0.9,0-1.6,0.3-2.1,0.8c-0.5,0.5-0.7,1.3-0.7,2.1c0,0.9,0.2,1.6,0.7,2.2C171.2,411.5,171.9,411.8,172.8,411.8z"/>
		<path d="M215.2,419.9v-36.2h46.9c4.1,0,7.1,1,9.1,3.1c1.9,2,2.9,4.7,2.9,8.1v25.1h-10.2V396c0-2.9-1.5-4.3-4.4-4.3h-9.8v28.1
			h-10.2v-28.1h-14.1v28.1H215.2z"/>
		<path d="M299.3,420.2c-6.3,0-11.2-1.6-14.7-4.7c-3.5-3.1-5.3-7.7-5.3-13.7c0-6.1,1.8-10.7,5.3-13.8c3.5-3.1,8.4-4.7,14.7-4.7h13
			c6.3,0,11.2,1.6,14.7,4.7c3.5,3.1,5.3,7.7,5.3,13.8c0,6-1.8,10.6-5.3,13.7c-3.5,3.1-8.4,4.7-14.7,4.7H299.3z M299.3,412.2h13
			c3,0,5.4-0.8,7-2.5c1.6-1.7,2.4-4.3,2.4-7.8c0-3.6-0.8-6.2-2.4-7.9c-1.6-1.7-4-2.5-7-2.5h-13c-3,0-5.4,0.8-7,2.5
			c-1.6,1.7-2.4,4.3-2.4,7.9c0,3.5,0.8,6.1,2.4,7.8C293.9,411.3,296.2,412.2,299.3,412.2z"/>
		<path d="M356.5,420.2c-6.3,0-11.2-1.6-14.7-4.7c-3.5-3.1-5.3-7.7-5.3-13.7c0-6.1,1.8-10.7,5.3-13.8c3.5-3.1,8.4-4.7,14.7-4.7H380
			v8.1h-23.6c-3,0-5.4,0.8-7,2.5c-1.6,1.7-2.4,4.3-2.4,7.9c0,3.5,0.8,6.1,2.4,7.8c1.6,1.7,3.9,2.5,7,2.5h24.3v8.1H356.5z"/>
		<path d="M385.3,419.9v-50.3h10.2v50.3H385.3z"/>
		<path d="M421.1,420.2c-6.3,0-11.2-1.6-14.7-4.7c-3.5-3.1-5.3-7.7-5.3-13.7c0-6.1,1.8-10.7,5.3-13.8c3.5-3.1,8.4-4.7,14.7-4.7h17.6
			c4.1,0,7.3,1,9.5,2.9c2.2,1.9,3.3,4.7,3.3,8.3c0,7.4-4.2,11-12.7,11h-26.6c1,4.4,4,6.5,9,6.5h28.5v8.1H421.1z M421.1,391.4
			c-4.8,0-7.8,2-8.9,6.1h26c0.9,0,1.7-0.3,2.2-0.8c0.5-0.6,0.8-1.3,0.8-2.3c0-2-1-3-3-3H421.1z"/>
		<path d="M455.8,420.2v-8.1h34.5c2,0,3-1.1,3-3.3c0-2.2-1-3.2-3-3.2H468c-4.2,0-7.3-0.9-9.5-2.8c-2.2-1.9-3.2-4.6-3.2-8.2
			c0-3.6,1.1-6.4,3.3-8.3c2.2-1.9,5.3-2.9,9.5-2.9h32.1v8.1h-31.6c-2,0-3,1-3,3c0,1,0.3,1.8,0.8,2.3c0.6,0.6,1.3,0.8,2.2,0.8h23.6
			c3.7,0,6.5,0.9,8.4,2.8c1.9,1.9,2.9,4.7,2.9,8.3c0,3.7-1,6.5-3,8.5c-2,2-4.8,3.1-8.4,3.1H455.8z"/>
	</g>
	<g>
		<g>
			<polygon class="st1" points="330.1,219.6 342,186.3 323.7,179.8 311.7,213.1 292.5,206.2 292.7,226 336.7,241.7 349.4,226.5 			
				"/>
			<polygon class="st1" points="296.5,239.8 264.7,328.7 276.7,339.8 293.1,338.9 324.9,250 310.7,244.9 			"/>
		</g>
		<path class="st2" d="M263.3,299.6c-7.6-11.3-9.9-25.9-5-39.7c4.2-11.7,12.8-20.6,23.4-25.4l-0.2-26.2
			c-20.8,5.8-38.5,21.3-46.4,43.2c-9.7,27.2-1.4,56.4,18.8,74.6L263.3,299.6z"/>
		<path class="st2" d="M356.6,235.3l-16.8,20.1c5.1,10.4,6.2,22.7,2,34.4c-4.9,13.8-16,23.6-29.1,27.5l-9.5,26.5
			c27.1-1.3,52.1-18.6,61.8-45.7C372.8,276.2,368.9,253,356.6,235.3z"/>
	</g>
</g>
</svg>
