<?xml version="1.0" encoding="utf-8"?>
<!-- Generator: Adobe Illustrator 24.3.0, SVG Export Plug-In . SVG Version: 6.00 Build 0)  -->
<svg version="1.1" id="图层_1" xmlns="http://www.w3.org/2000/svg" xmlns:xlink="http://www.w3.org/1999/xlink" x="0px" y="0px"
	 viewBox="0 0 600 600" style="enable-background:new 0 0 600 600;" xml:space="preserve">
<style type="text/css">
	.st0{fill:#FFFFFF;}
	.st1{fill:#D65C5C;}
	.st2{fill:#3D1111;}
</style>
<g>
	<g>
		<path d="M190.2,321.5v-43.3h7.1l19.4-0.1c7.8,0,13.9,1.8,18.2,5.5c4.3,3.7,6.5,9.1,6.5,16.2c0,7.1-2.2,12.5-6.5,16.2
			c-4.3,3.7-10.4,5.5-18.2,5.5H190.2z M216,286h-16.2v27.6H216c5.1,0,8.9-1.1,11.6-3.3c2.6-2.2,3.9-5.7,3.9-10.5
			c0-4.8-1.3-8.3-3.9-10.5C225,287.1,221.1,286,216,286z"/>
		<path d="M254.2,321.5c-3.3,0-5.8-0.8-7.5-2.5c-1.7-1.7-2.6-4-2.6-7.1c0-3,0.9-5.4,2.6-7c1.7-1.7,4.2-2.5,7.5-2.5h23.2V301
			c0-2.5-1.2-3.7-3.6-3.7h-25.7v-7h28c3.7,0,6.3,0.8,7.8,2.5c1.5,1.7,2.3,4,2.3,7.1v21.6H254.2z M255.8,314.6h21.7v-5.1h-21.7
			c-0.8,0-1.4,0.2-1.8,0.7c-0.4,0.5-0.6,1.1-0.6,1.8c0,0.8,0.2,1.4,0.6,1.9C254.4,314.3,255,314.6,255.8,314.6z"/>
		<path d="M292.3,321.5v-31.2h40.4c3.6,0,6.2,0.9,7.8,2.6c1.7,1.8,2.5,4.1,2.5,6.9v21.6h-8.8V301c0-2.5-1.3-3.7-3.8-3.7H322v24.2
			h-8.8v-24.2h-12.2v24.2H292.3z"/>
		<path d="M364.7,321.8c-5.4,0-9.6-1.3-12.7-4c-3-2.7-4.5-6.6-4.5-11.8c0-5.2,1.5-9.2,4.5-11.9c3-2.7,7.2-4,12.7-4h11.2
			c5.4,0,9.6,1.3,12.6,4c3,2.7,4.5,6.6,4.5,11.9c0,5.2-1.5,9.2-4.5,11.8c-3,2.7-7.2,4-12.6,4H364.7z M364.7,314.9h11.2
			c2.6,0,4.6-0.7,6-2.2c1.4-1.5,2.1-3.7,2.1-6.7c0-3.1-0.7-5.3-2.1-6.8c-1.4-1.5-3.4-2.2-6-2.2h-11.2c-2.6,0-4.6,0.7-6,2.2
			c-1.4,1.5-2.1,3.7-2.1,6.8c0,3,0.7,5.3,2.1,6.7C360.1,314.1,362.1,314.9,364.7,314.9z"/>
		<path d="M413.9,321.8c-5.4,0-9.6-1.3-12.7-4c-3-2.7-4.5-6.6-4.5-11.8c0-5.2,1.5-9.2,4.5-11.9c3-2.7,7.2-4,12.7-4h20.3v7h-20.3
			c-2.6,0-4.6,0.7-6,2.2c-1.4,1.5-2.1,3.7-2.1,6.8c0,3,0.7,5.3,2.1,6.7c1.4,1.5,3.4,2.2,6,2.2h20.9v7H413.9z"/>
		<path d="M438.7,321.5v-43.3h8.8v43.3H438.7z"/>
		<path d="M469.5,321.8c-5.4,0-9.6-1.3-12.7-4c-3-2.7-4.5-6.6-4.5-11.8c0-5.2,1.5-9.2,4.5-11.9c3-2.7,7.2-4,12.7-4h15.1
			c3.6,0,6.3,0.8,8.1,2.5c1.9,1.7,2.8,4.1,2.8,7.2c0,6.3-3.7,9.5-11,9.5h-22.9c0.8,3.8,3.4,5.6,7.7,5.6H494v7H469.5z M469.5,297
			c-4.2,0-6.7,1.8-7.7,5.3h22.4c0.8,0,1.4-0.2,1.9-0.7c0.5-0.5,0.7-1.2,0.7-2c0-1.7-0.9-2.5-2.6-2.5H469.5z"/>
		<path d="M499.4,321.8v-7h29.7c1.7,0,2.5-0.9,2.5-2.8c0-1.9-0.8-2.8-2.5-2.8h-19.2c-3.6,0-6.3-0.8-8.2-2.5c-1.9-1.6-2.8-4-2.8-7.1
			c0-3.1,0.9-5.5,2.8-7.2c1.9-1.7,4.6-2.5,8.1-2.5h27.6v7h-27.2c-1.7,0-2.6,0.8-2.6,2.5c0,0.8,0.2,1.5,0.7,2
			c0.5,0.5,1.1,0.7,1.9,0.7h20.3c3.1,0,5.6,0.8,7.2,2.5c1.7,1.6,2.5,4,2.5,7.1c0,3.1-0.8,5.6-2.5,7.4c-1.7,1.8-4.1,2.6-7.2,2.6
			H499.4z"/>
	</g>
	<g>
		<g>
			<polygon points="133.1,268.8 141.9,244.1 128.3,239.3 119.5,263.9 105.2,258.8 105.3,273.5 137.9,285.1 147.3,273.9 			"/>
			<polygon points="108.2,283.7 84.6,349.6 93.5,357.8 105.7,357.1 129.2,291.3 118.7,287.5 			"/>
		</g>
		<path d="M83.6,328c-5.6-8.4-7.4-19.2-3.7-29.4c3.1-8.7,9.5-15.2,17.3-18.8L97,260.4c-15.4,4.3-28.6,15.8-34.4,32
			c-7.2,20.1-1,41.8,13.9,55.2L83.6,328z"/>
		<path d="M152.7,280.4l-12.4,14.9c3.8,7.7,4.6,16.8,1.5,25.5c-3.7,10.2-11.9,17.5-21.5,20.4l-7,19.6c20.1-0.9,38.6-13.7,45.8-33.9
			C164.7,310.7,161.8,293.5,152.7,280.4z"/>
	</g>
</g>
</svg>
